<?xml version="1.0" encoding="UTF-8" standalone="no"?>
<!-- Created with Inkscape (http://www.inkscape.org/) -->

<svg
   xmlns:dc="http://purl.org/dc/elements/1.1/"
   xmlns:cc="http://creativecommons.org/ns#"
   xmlns:rdf="http://www.w3.org/1999/02/22-rdf-syntax-ns#"
   xmlns:svg="http://www.w3.org/2000/svg"
   xmlns="http://www.w3.org/2000/svg"
   xmlns:sodipodi="http://sodipodi.sourceforge.net/DTD/sodipodi-0.dtd"
   xmlns:inkscape="http://www.inkscape.org/namespaces/inkscape"
   width="115.15641mm"
   height="112.88889mm"
   viewBox="0 0 408.03452 400.00001"
   id="svg4542"
   version="1.1"
   inkscape:version="0.91 r13725"
   sodipodi:docname="National Yunlin University of Science and Technology logo.svg">
  <defs
     id="defs4544" />
  <sodipodi:namedview
     id="base"
     pagecolor="#ffffff"
     bordercolor="#666666"
     borderopacity="1.0"
     inkscape:pageopacity="0.0"
     inkscape:pageshadow="2"
     inkscape:zoom="1"
     inkscape:cx="109.20548"
     inkscape:cy="90.272471"
     inkscape:document-units="px"
     inkscape:current-layer="layer1"
     showgrid="false"
     fit-margin-top="0"
     fit-margin-left="0"
     fit-margin-right="0"
     fit-margin-bottom="0"
     inkscape:window-width="1920"
     inkscape:window-height="1017"
     inkscape:window-x="1016"
     inkscape:window-y="-8"
     inkscape:window-maximized="1" />
  <metadata
     id="metadata4547">
    <rdf:RDF>
      <cc:Work
         rdf:about="">
        <dc:format>image/svg+xml</dc:format>
        <dc:type
           rdf:resource="http://purl.org/dc/dcmitype/StillImage" />
        <dc:title></dc:title>
      </cc:Work>
    </rdf:RDF>
  </metadata>
  <g
     inkscape:label="Layer 1"
     inkscape:groupmode="layer"
     id="layer1"
     transform="translate(-24.055959,-222.63467)">
    <g
       transform="matrix(2.3910146,0,0,-2.3910146,823.78722,1395.5103)"
       inkscape:label="A101_Mark"
       id="g5098">
      <path
         inkscape:connector-curvature="0"
         id="path5100"
         style="fill:#00938e;fill-opacity:1;fill-rule:nonzero;stroke:none"
         d="m -207.7505,380.1426 -38.8403,22.4512 0,-44.8799 33.8847,-28.3116 12.5264,7.2041 -7.5708,43.5362 m -32.0347,-19.2505 0,29.917 25.8731,-14.9531 7.4687,-42.8062 -33.3418,27.8423 z" />
      <path
         inkscape:connector-curvature="0"
         id="path5102"
         style="fill:#00938e;fill-opacity:1;fill-rule:nonzero;stroke:none"
         d="m -195.8623,339.1714 6.2754,3.5825 -5.8247,33.1909 31.5913,11.5108 0,7.2304 -39.2681,-14.3296 7.2261,-41.185 z" />
      <path
         inkscape:connector-curvature="0"
         id="path5104"
         style="fill:#00938e;fill-opacity:1;fill-rule:nonzero;stroke:none"
         d="m -251.6318,357.666 0,44.8628 -38.8555,-22.4399 -7.5767,-43.501 12.502,-7.2461 33.9302,28.3242 m -32.7007,18.1182 25.9092,14.9585 -0.0132,-29.8833 -33.3374,-27.8711 7.4414,42.7959 z" />
      <path
         inkscape:connector-curvature="0"
         id="path5106"
         style="fill:#00938e;fill-opacity:1;fill-rule:nonzero;stroke:none"
         d="m -281.1816,326.8853 6.2407,-3.6436 25.8315,21.6401 25.7642,-21.604 6.2622,3.6153 -32.0444,26.8427 -32.0542,-26.8505 z" />
      <path
         inkscape:connector-curvature="0"
         id="path5108"
         style="fill:#00938e;fill-opacity:1;fill-rule:nonzero;stroke:none"
         d="m -292.9971,384.4722 38.8643,22.4111 -38.8677,22.4404 -41.4731,-15.1894 0,-14.4502 41.4765,-15.2119 m -0.6538,37.3681 25.9087,-14.9585 -25.8862,-14.9301 -40.8057,14.9355 40.7832,14.9531 z" />
      <path
         inkscape:connector-curvature="0"
         id="path5110"
         style="fill:#00938e;fill-opacity:1;fill-rule:nonzero;stroke:none"
         d="m -334.4409,394.6621 0,-7.2256 31.6391,-11.5512 -5.8271,-33.1148 6.2617,-3.6152 7.2246,41.1728 -39.2983,14.334 z" />
      <path
         inkscape:connector-curvature="0"
         id="path5112"
         style="fill:#00938e;fill-opacity:1;fill-rule:nonzero;stroke:none"
         d="m -290.4741,433.748 38.8408,-22.4516 0,44.8804 -33.8848,28.312 -12.5268,-7.2041 7.5708,-43.5367 m 32.0351,19.2505 0,-29.917 -25.8735,14.9532 -7.4683,42.8066 33.3418,-27.8428 z" />
      <path
         inkscape:connector-curvature="0"
         id="path5114"
         style="fill:#00938e;fill-opacity:1;fill-rule:nonzero;stroke:none"
         d="m -302.3623,474.7197 -6.2759,-3.5825 5.8252,-33.1914 -31.5918,-11.5107 0,-7.2305 39.2691,14.3296 -7.2266,41.1855 z" />
      <path
         inkscape:connector-curvature="0"
         id="path5116"
         style="fill:#00938e;fill-opacity:1;fill-rule:nonzero;stroke:none"
         d="m -246.5835,456.1099 0,-44.8628 38.856,22.4399 7.5766,43.5015 -12.5024,7.2461 -33.9302,-28.3247 m 32.7007,-18.1182 -25.9024,-14.9585 0,29.8838 33.3443,27.8711 -7.4419,-42.7964 z" />
      <path
         inkscape:connector-curvature="0"
         id="path5118"
         style="fill:#00938e;fill-opacity:1;fill-rule:nonzero;stroke:none"
         d="m -217.0337,486.8911 -6.2402,3.6436 -25.8321,-21.6402 -25.7641,21.604 -6.2622,-3.6152 32.0444,-26.8433 32.0542,26.8511 z" />
      <path
         inkscape:connector-curvature="0"
         id="path5120"
         style="fill:#00938e;fill-opacity:1;fill-rule:nonzero;stroke:none"
         d="m -205.3208,429.3042 -38.8643,-22.4111 38.8677,-22.4405 41.4614,15.189 0.0245,14.4507 -41.4893,15.2119 m 0.6538,-37.3687 -25.9092,14.959 25.8867,14.9302 40.8062,-14.936 -40.7837,-14.9532 z" />
      <path
         inkscape:connector-curvature="0"
         id="path5122"
         style="fill:#00938e;fill-opacity:1;fill-rule:nonzero;stroke:none"
         d="m -163.894,419.1138 0.0351,7.226 -31.6572,11.5513 5.8276,33.1148 -6.2617,3.6152 -7.2246,-41.1729 39.2808,-14.3344 z" />
    </g>
  </g>
</svg>
